<mxfile host="app.diagrams.net" modified="2024-06-18T11:50:57.641Z" agent="Mozilla/5.0 (Windows NT 10.0; Win64; x64) AppleWebKit/537.36 (KHTML, like Gecko) Chrome/126.0.0.0 Safari/537.36" etag="TKbJdMAj_M-zVV8dQnQ-" version="24.5.3" type="github">
  <diagram id="C5RBs43oDa-KdzZeNtuy" name="Page-1">
    <mxGraphModel dx="1434" dy="738" grid="1" gridSize="10" guides="1" tooltips="1" connect="1" arrows="1" fold="1" page="1" pageScale="1" pageWidth="827" pageHeight="1169" math="0" shadow="0">
      <root>
        <mxCell id="WIyWlLk6GJQsqaUBKTNV-0" />
        <mxCell id="WIyWlLk6GJQsqaUBKTNV-1" parent="WIyWlLk6GJQsqaUBKTNV-0" />
        <mxCell id="bM_N_78t7GaxI7WLrmo9-0" value="" style="rounded=0;whiteSpace=wrap;html=1;fillColor=#9AC7BF;labelPosition=left;verticalLabelPosition=top;align=right;verticalAlign=bottom;" parent="WIyWlLk6GJQsqaUBKTNV-1" vertex="1">
          <mxGeometry x="94" y="230" width="640" height="370" as="geometry" />
        </mxCell>
        <mxCell id="a42Jou1E6BZatIiqyqGm-13" value="" style="edgeStyle=orthogonalEdgeStyle;rounded=0;orthogonalLoop=1;jettySize=auto;html=1;endArrow=none;endFill=0;startArrow=classic;startFill=1;exitX=0.5;exitY=0;exitDx=0;exitDy=0;" edge="1" parent="WIyWlLk6GJQsqaUBKTNV-1" source="a42Jou1E6BZatIiqyqGm-6" target="bM_N_78t7GaxI7WLrmo9-1">
          <mxGeometry relative="1" as="geometry" />
        </mxCell>
        <mxCell id="bM_N_78t7GaxI7WLrmo9-1" value="Web server&lt;div&gt;[Flask]&lt;/div&gt;" style="rounded=1;whiteSpace=wrap;html=1;fillColor=#A9C4EB;" parent="WIyWlLk6GJQsqaUBKTNV-1" vertex="1">
          <mxGeometry x="354" y="80" width="120" height="60" as="geometry" />
        </mxCell>
        <mxCell id="bM_N_78t7GaxI7WLrmo9-3" value="&lt;b&gt;&lt;font style=&quot;font-size: 14px;&quot;&gt;Trello service&lt;/font&gt;&lt;/b&gt;&lt;div&gt;[Python]&lt;/div&gt;" style="rounded=1;whiteSpace=wrap;html=1;fillColor=#F19C99;" parent="WIyWlLk6GJQsqaUBKTNV-1" vertex="1">
          <mxGeometry x="354" y="480" width="120" height="60" as="geometry" />
        </mxCell>
        <mxCell id="bM_N_78t7GaxI7WLrmo9-15" value="" style="endArrow=classic;html=1;rounded=0;entryX=0.5;entryY=0;entryDx=0;entryDy=0;exitX=0.5;exitY=1;exitDx=0;exitDy=0;" parent="WIyWlLk6GJQsqaUBKTNV-1" source="a42Jou1E6BZatIiqyqGm-6" target="bM_N_78t7GaxI7WLrmo9-3" edge="1">
          <mxGeometry width="50" height="50" relative="1" as="geometry">
            <mxPoint x="414" y="570" as="sourcePoint" />
            <mxPoint x="460" y="520" as="targetPoint" />
          </mxGeometry>
        </mxCell>
        <mxCell id="bM_N_78t7GaxI7WLrmo9-24" value="&lt;font style=&quot;font-size: 14px;&quot;&gt;&lt;b&gt;ToDo App&lt;/b&gt;&lt;/font&gt;" style="text;html=1;align=center;verticalAlign=middle;whiteSpace=wrap;rounded=0;" parent="WIyWlLk6GJQsqaUBKTNV-1" vertex="1">
          <mxGeometry x="100" y="240" width="90" height="30" as="geometry" />
        </mxCell>
        <mxCell id="_-H6VphneVOFRikFWXdX-0" value="&lt;h1 style=&quot;margin-top: 0px;&quot;&gt;Component Diagram&lt;/h1&gt;&lt;div&gt;ToDo app&lt;/div&gt;" style="text;html=1;whiteSpace=wrap;overflow=hidden;rounded=0;" parent="WIyWlLk6GJQsqaUBKTNV-1" vertex="1">
          <mxGeometry x="50" y="20" width="250" height="80" as="geometry" />
        </mxCell>
        <mxCell id="a42Jou1E6BZatIiqyqGm-0" value="Trello" style="ellipse;shape=cloud;whiteSpace=wrap;html=1;" vertex="1" parent="WIyWlLk6GJQsqaUBKTNV-1">
          <mxGeometry x="216.5" y="669.9971768878418" width="120" height="80" as="geometry" />
        </mxCell>
        <mxCell id="a42Jou1E6BZatIiqyqGm-1" value="Trello API" style="rounded=1;whiteSpace=wrap;html=1;" vertex="1" parent="WIyWlLk6GJQsqaUBKTNV-1">
          <mxGeometry x="286.5" y="669.9971768878418" width="60" height="20" as="geometry" />
        </mxCell>
        <mxCell id="a42Jou1E6BZatIiqyqGm-3" value="" style="endArrow=classic;html=1;rounded=0;exitX=0.5;exitY=1;exitDx=0;exitDy=0;entryX=0.5;entryY=0;entryDx=0;entryDy=0;" edge="1" parent="WIyWlLk6GJQsqaUBKTNV-1" source="bM_N_78t7GaxI7WLrmo9-3" target="a42Jou1E6BZatIiqyqGm-1">
          <mxGeometry width="50" height="50" relative="1" as="geometry">
            <mxPoint x="390" y="610" as="sourcePoint" />
            <mxPoint x="440" y="560" as="targetPoint" />
          </mxGeometry>
        </mxCell>
        <mxCell id="a42Jou1E6BZatIiqyqGm-8" style="edgeStyle=orthogonalEdgeStyle;rounded=0;orthogonalLoop=1;jettySize=auto;html=1;entryX=0;entryY=0.5;entryDx=0;entryDy=0;" edge="1" parent="WIyWlLk6GJQsqaUBKTNV-1" source="a42Jou1E6BZatIiqyqGm-4" target="a42Jou1E6BZatIiqyqGm-6">
          <mxGeometry relative="1" as="geometry" />
        </mxCell>
        <mxCell id="a42Jou1E6BZatIiqyqGm-4" value="&lt;span style=&quot;font-size: 14px;&quot;&gt;&lt;b&gt;HTML templates&lt;/b&gt;&lt;/span&gt;" style="rounded=1;whiteSpace=wrap;html=1;fillColor=#F19C99;" vertex="1" parent="WIyWlLk6GJQsqaUBKTNV-1">
          <mxGeometry x="115" y="320" width="135" height="70" as="geometry" />
        </mxCell>
        <mxCell id="a42Jou1E6BZatIiqyqGm-7" style="edgeStyle=orthogonalEdgeStyle;rounded=0;orthogonalLoop=1;jettySize=auto;html=1;exitX=0.5;exitY=0;exitDx=0;exitDy=0;" edge="1" parent="WIyWlLk6GJQsqaUBKTNV-1" source="a42Jou1E6BZatIiqyqGm-5" target="a42Jou1E6BZatIiqyqGm-6">
          <mxGeometry relative="1" as="geometry" />
        </mxCell>
        <mxCell id="a42Jou1E6BZatIiqyqGm-5" value="&lt;span style=&quot;font-size: 14px;&quot;&gt;&lt;b&gt;Data classes&lt;/b&gt;&lt;/span&gt;&lt;div&gt;&lt;font style=&quot;font-size: 12px;&quot;&gt;[Python]&lt;/font&gt;&lt;/div&gt;" style="rounded=1;whiteSpace=wrap;html=1;fillColor=#F19C99;" vertex="1" parent="WIyWlLk6GJQsqaUBKTNV-1">
          <mxGeometry x="570" y="400" width="135" height="70" as="geometry" />
        </mxCell>
        <mxCell id="a42Jou1E6BZatIiqyqGm-6" value="&lt;b style=&quot;font-size: 16px;&quot;&gt;Webserver routes:&lt;/b&gt;&lt;div style=&quot;&quot;&gt;&lt;font style=&quot;font-size: 12px;&quot;&gt;&lt;b style=&quot;&quot;&gt;get-cards&lt;/b&gt;&lt;b style=&quot;&quot;&gt;&lt;br&gt;&lt;/b&gt;&lt;/font&gt;&lt;/div&gt;&lt;div style=&quot;&quot;&gt;&lt;font style=&quot;font-size: 12px;&quot;&gt;&lt;b style=&quot;&quot;&gt;add-card&lt;/b&gt;&lt;/font&gt;&lt;/div&gt;&lt;div style=&quot;&quot;&gt;&lt;b style=&quot;background-color: initial;&quot;&gt;move-card&lt;/b&gt;&lt;/div&gt;&lt;div style=&quot;&quot;&gt;&lt;span style=&quot;background-color: initial;&quot;&gt;[Python]&lt;/span&gt;&lt;/div&gt;" style="rounded=1;whiteSpace=wrap;html=1;fillColor=#F19C99;" vertex="1" parent="WIyWlLk6GJQsqaUBKTNV-1">
          <mxGeometry x="346.5" y="275" width="135" height="160" as="geometry" />
        </mxCell>
        <mxCell id="a42Jou1E6BZatIiqyqGm-10" value="" style="endArrow=classic;html=1;rounded=0;entryX=1;entryY=0.5;entryDx=0;entryDy=0;exitX=0.5;exitY=1;exitDx=0;exitDy=0;" edge="1" parent="WIyWlLk6GJQsqaUBKTNV-1" source="a42Jou1E6BZatIiqyqGm-5" target="bM_N_78t7GaxI7WLrmo9-3">
          <mxGeometry width="50" height="50" relative="1" as="geometry">
            <mxPoint x="650" y="380" as="sourcePoint" />
            <mxPoint x="700" y="330" as="targetPoint" />
            <Array as="points">
              <mxPoint x="638" y="510" />
            </Array>
          </mxGeometry>
        </mxCell>
        <mxCell id="a42Jou1E6BZatIiqyqGm-12" style="edgeStyle=orthogonalEdgeStyle;rounded=0;orthogonalLoop=1;jettySize=auto;html=1;exitX=0.5;exitY=1;exitDx=0;exitDy=0;" edge="1" parent="WIyWlLk6GJQsqaUBKTNV-1" source="bM_N_78t7GaxI7WLrmo9-0" target="bM_N_78t7GaxI7WLrmo9-0">
          <mxGeometry relative="1" as="geometry" />
        </mxCell>
      </root>
    </mxGraphModel>
  </diagram>
</mxfile>
